0
SECTION
2
HEADER
9
$INSUNITS
70
4
0
ENDSEC
0
SECTION
2
TABLES
0
TABLE
2
LTYPE
0
LTYPE
72
65
70
64
2
CONTINUOUS
3
______
73
0
40
0
0
ENDTAB
0
TABLE
2
LAYER
0
ENDTAB
0
ENDSEC
0
SECTION
2
ENTITIES
0
LINE
8
0
10
346.6732673
20
-159.5
11
379.5
21
-159.5
0
LINE
8
0
10
379.5
20
-159.5
11
379.5
21
-83.5
0
LINE
8
0
10
341.5
20
-83.5
11
379.5
21
-83.5
0
LINE
8
0
10
341.5
20
-83.5
11
341.5
21
-78.75
0
LINE
8
0
10
341.5
20
-78.75
11
322.5
21
-78.75
0
LINE
8
0
10
322.5
20
-78.75
11
322.5
21
-76.375
0
LINE
8
0
10
322.5
20
-76.375
11
303.5
21
-76.375
0
LINE
8
0
10
303.5
20
-76.375
11
303.5
21
-78.75
0
LINE
8
0
10
303.5
20
-78.75
11
284.5
21
-78.75
0
LINE
8
0
10
284.5
20
-78.75
11
284.5
21
-81.125
0
LINE
8
0
10
245.2000691
20
-81.125
11
284.5
21
-81.125
0
LINE
8
0
10
346.6732673
20
-159.5
11
339.5
21
-176.75
0
LINE
8
0
10
339.5
20
-176.75
11
282.5
21
-176.75
0
LINE
8
0
10
282.5
20
-176.75
11
272.8806897
21
-183.4715517
0
LINE
8
0
10
272.8806897
20
-183.4715517
11
273.1212357
21
-193.3881895
0
LINE
8
0
10
273.1212357
20
-193.3881895
11
252.5531323
21
-205.2631895
0
LINE
8
0
10
252.5531323
20
-205.2631895
11
238.12044
21
-180.2650331
0
LINE
8
0
10
238.12044
20
-180.2650331
11
244.8212875
21
-175.7212414
0
LINE
8
0
10
244.8212875
20
-175.7212414
11
245.2000691
21
-172.5773104
0
LINE
8
0
10
245.2000691
20
-172.5773104
11
245.2000691
21
-81.125
0
ENDSEC
0
EOF