0
SECTION
2
HEADER
9
$INSUNITS
70
4
0
ENDSEC
0
SECTION
2
TABLES
0
TABLE
2
LTYPE
0
LTYPE
72
65
70
64
2
CONTINUOUS
3
______
73
0
40
0
0
ENDTAB
0
TABLE
2
LAYER
0
ENDTAB
0
ENDSEC
0
SECTION
2
ENTITIES
0
LINE
8
0
10
70.5
20
-159.5
11
103.3267327
21
-159.5
0
LINE
8
0
10
70.5
20
-159.5
11
70.5
21
-83.5
0
LINE
8
0
10
70.5
20
-83.5
11
108.5
21
-83.5
0
LINE
8
0
10
127.5
20
-78.75
11
108.5
21
-78.75
0
LINE
8
0
10
108.5
20
-78.75
11
108.5
21
-83.5
0
LINE
8
0
10
146.5
20
-78.75
11
146.5
21
-76.375
0
LINE
8
0
10
146.5
20
-76.375
11
127.5
21
-76.375
0
LINE
8
0
10
127.5
20
-76.375
11
127.5
21
-78.75
0
LINE
8
0
10
165.5
20
-81.125
11
165.5
21
-78.75
0
LINE
8
0
10
165.5
20
-78.75
11
146.5
21
-78.75
0
LINE
8
0
10
165.5
20
-81.125
11
204.7999309
21
-81.125
0
LINE
8
0
10
103.3267327
20
-159.5
11
110.5
21
-176.75
0
LINE
8
0
10
110.5
20
-176.75
11
167.5
21
-176.75
0
LINE
8
0
10
167.5
20
-176.75
11
177.1193103
21
-183.4715517
0
LINE
8
0
10
177.1193103
20
-183.4715517
11
176.8787643
21
-193.3881895
0
LINE
8
0
10
176.8787643
20
-193.3881895
11
197.4468677
21
-205.2631895
0
LINE
8
0
10
197.4468677
20
-205.2631895
11
211.87956
21
-180.2650331
0
LINE
8
0
10
211.87956
20
-180.2650331
11
205.1787125
21
-175.7212414
0
LINE
8
0
10
205.1787125
20
-175.7212414
11
204.7999309
21
-172.5773104
0
LINE
8
0
10
204.7999309
20
-172.5773104
11
204.7999309
21
-81.125
0
ENDSEC
0
EOF