0
SECTION
2
HEADER
9
$INSUNITS
70
4
0
ENDSEC
0
SECTION
2
TABLES
0
TABLE
2
LTYPE
0
LTYPE
72
65
70
64
2
CONTINUOUS
3
______
73
0
40
0
0
ENDTAB
0
TABLE
2
LAYER
0
ENDTAB
0
ENDSEC
0
SECTION
2
ENTITIES
0
LINE
8
0
10
140.5
20
-159.5
11
173.3267327
21
-159.5
0
LINE
8
0
10
140.5
20
-159.5
11
140.5
21
-83.5
0
LINE
8
0
10
140.5
20
-83.5
11
178.5
21
-83.5
0
LINE
8
0
10
197.5
20
-78.75
11
178.5
21
-78.75
0
LINE
8
0
10
178.5
20
-78.75
11
178.5
21
-83.5
0
LINE
8
0
10
216.5
20
-78.75
11
216.5
21
-76.375
0
LINE
8
0
10
216.5
20
-76.375
11
197.5
21
-76.375
0
LINE
8
0
10
197.5
20
-76.375
11
197.5
21
-78.75
0
LINE
8
0
10
235.5
20
-81.125
11
235.5
21
-78.75
0
LINE
8
0
10
235.5
20
-78.75
11
216.5
21
-78.75
0
LINE
8
0
10
235.5
20
-81.125
11
274.7999309
21
-81.125
0
LINE
8
0
10
180.5
20
-176.75
11
237.5
21
-176.75
0
LINE
8
0
10
173.3267327
20
-159.5
11
180.5
21
-176.75
0
LINE
8
0
10
237.5
20
-176.75
11
247.1193103
21
-181.0965517
0
LINE
8
0
10
247.1193103
20
-181.0965517
11
246.8787643
21
-191.0131895
0
LINE
8
0
10
246.8787643
20
-191.0131895
11
265.3900573
21
-201.7006895
0
LINE
8
0
10
265.3900573
20
-201.7006895
11
279.8227496
21
-176.7025331
0
LINE
8
0
10
279.8227496
20
-176.7025331
11
275.1787125
21
-173.3462414
0
LINE
8
0
10
275.1787125
20
-173.3462414
11
274.7999309
21
-170.2023104
0
LINE
8
0
10
274.7999309
20
-170.2023104
11
274.7999309
21
-81.125
0
ENDSEC
0
EOF