0
SECTION
2
HEADER
9
$INSUNITS
70
4
0
ENDSEC
0
SECTION
2
TABLES
0
TABLE
2
LTYPE
0
LTYPE
72
65
70
64
2
CONTINUOUS
3
______
73
0
40
0
0
ENDTAB
0
TABLE
2
LAYER
0
ENDTAB
0
ENDSEC
0
SECTION
2
ENTITIES
0
LINE
8
0
10
70.5
20
-159.5
11
103.3267327
21
-159.5
0
LINE
8
0
10
70.5
20
-159.5
11
70.5
21
-83.5
0
LINE
8
0
10
70.5
20
-83.5
11
108.5
21
-83.5
0
LINE
8
0
10
127.5
20
-78.75
11
108.5
21
-78.75
0
LINE
8
0
10
108.5
20
-78.75
11
108.5
21
-83.5
0
LINE
8
0
10
146.5
20
-78.75
11
146.5
21
-76.375
0
LINE
8
0
10
146.5
20
-76.375
11
127.5
21
-76.375
0
LINE
8
0
10
127.5
20
-76.375
11
127.5
21
-78.75
0
LINE
8
0
10
165.5
20
-81.125
11
165.5
21
-78.75
0
LINE
8
0
10
165.5
20
-78.75
11
146.5
21
-78.75
0
LINE
8
0
10
165.5
20
-81.125
11
204.7999309
21
-81.125
0
LINE
8
0
10
103.3267327
20
-159.5
11
110.5
21
-176.75
0
LINE
8
0
10
110.5
20
-176.75
11
167.5
21
-176.75
0
LINE
8
0
10
167.5
20
-176.75
11
177.1193103
21
-183.4715517
0
LINE
8
0
10
177.1193103
20
-183.4715517
11
176.8787643
21
-193.3881895
0
LINE
8
0
10
176.8787643
20
-193.3881895
11
197.4468677
21
-205.2631895
0
LINE
8
0
10
197.4468677
20
-205.2631895
11
211.87956
21
-180.2650331
0
LINE
8
0
10
211.87956
20
-180.2650331
11
205.1787125
21
-175.7212414
0
LINE
8
0
10
205.1787125
20
-175.7212414
11
204.7999309
21
-172.5773104
0
LINE
8
0
10
204.7999309
20
-172.5773104
11
204.7999309
21
-81.125
0
LINE
8
0
10
346.6732673
20
-159.5
11
379.5
21
-159.5
0
LINE
8
0
10
379.5
20
-159.5
11
379.5
21
-83.5
0
LINE
8
0
10
341.5
20
-83.5
11
379.5
21
-83.5
0
LINE
8
0
10
341.5
20
-83.5
11
341.5
21
-78.75
0
LINE
8
0
10
341.5
20
-78.75
11
322.5
21
-78.75
0
LINE
8
0
10
322.5
20
-78.75
11
322.5
21
-76.375
0
LINE
8
0
10
322.5
20
-76.375
11
303.5
21
-76.375
0
LINE
8
0
10
303.5
20
-76.375
11
303.5
21
-78.75
0
LINE
8
0
10
303.5
20
-78.75
11
284.5
21
-78.75
0
LINE
8
0
10
284.5
20
-78.75
11
284.5
21
-81.125
0
LINE
8
0
10
245.2000691
20
-81.125
11
284.5
21
-81.125
0
LINE
8
0
10
346.6732673
20
-159.5
11
339.5
21
-176.75
0
LINE
8
0
10
339.5
20
-176.75
11
282.5
21
-176.75
0
LINE
8
0
10
282.5
20
-176.75
11
272.8806897
21
-183.4715517
0
LINE
8
0
10
272.8806897
20
-183.4715517
11
273.1212357
21
-193.3881895
0
LINE
8
0
10
273.1212357
20
-193.3881895
11
252.5531323
21
-205.2631895
0
LINE
8
0
10
252.5531323
20
-205.2631895
11
238.12044
21
-180.2650331
0
LINE
8
0
10
238.12044
20
-180.2650331
11
244.8212875
21
-175.7212414
0
LINE
8
0
10
244.8212875
20
-175.7212414
11
245.2000691
21
-172.5773104
0
LINE
8
0
10
245.2000691
20
-172.5773104
11
245.2000691
21
-81.125
0
LINE
8
0
10
74
20
-159
11
86
21
-159
0
LINE
8
0
10
89
20
-156
11
89
21
-144
0
LINE
8
0
10
86
20
-141
11
74
21
-141
0
LINE
8
0
10
71
20
-144
11
71
21
-156
0
LINE
8
0
10
74
20
-140
11
86
21
-140
0
LINE
8
0
10
89
20
-137
11
89
21
-125
0
LINE
8
0
10
86
20
-122
11
74
21
-122
0
LINE
8
0
10
71
20
-125
11
71
21
-137
0
LINE
8
0
10
74
20
-121
11
86
21
-121
0
LINE
8
0
10
89
20
-118
11
89
21
-106
0
LINE
8
0
10
86
20
-103
11
74
21
-103
0
LINE
8
0
10
71
20
-106
11
71
21
-118
0
LINE
8
0
10
74
20
-102
11
86
21
-102
0
LINE
8
0
10
89
20
-99
11
89
21
-87
0
LINE
8
0
10
86
20
-84
11
74
21
-84
0
LINE
8
0
10
71
20
-87
11
71
21
-99
0
LINE
8
0
10
93
20
-159
11
105
21
-159
0
LINE
8
0
10
108
20
-156
11
108
21
-144
0
LINE
8
0
10
105
20
-141
11
93
21
-141
0
LINE
8
0
10
90
20
-144
11
90
21
-156
0
LINE
8
0
10
93
20
-140
11
105
21
-140
0
LINE
8
0
10
108
20
-137
11
108
21
-125
0
LINE
8
0
10
105
20
-122
11
93
21
-122
0
LINE
8
0
10
90
20
-125
11
90
21
-137
0
LINE
8
0
10
93
20
-121
11
105
21
-121
0
LINE
8
0
10
108
20
-118
11
108
21
-106
0
LINE
8
0
10
105
20
-103
11
93
21
-103
0
LINE
8
0
10
90
20
-106
11
90
21
-118
0
LINE
8
0
10
93
20
-102
11
105
21
-102
0
LINE
8
0
10
108
20
-99
11
108
21
-87
0
LINE
8
0
10
105
20
-84
11
93
21
-84
0
LINE
8
0
10
90
20
-87
11
90
21
-99
0
LINE
8
0
10
112
20
-154.25
11
124
21
-154.25
0
LINE
8
0
10
127
20
-151.25
11
127
21
-139.25
0
LINE
8
0
10
124
20
-136.25
11
112
21
-136.25
0
LINE
8
0
10
109
20
-139.25
11
109
21
-151.25
0
LINE
8
0
10
112
20
-135.25
11
124
21
-135.25
0
LINE
8
0
10
127
20
-132.25
11
127
21
-120.25
0
LINE
8
0
10
124
20
-117.25
11
112
21
-117.25
0
LINE
8
0
10
109
20
-120.25
11
109
21
-132.25
0
LINE
8
0
10
112
20
-116.25
11
124
21
-116.25
0
LINE
8
0
10
127
20
-113.25
11
127
21
-101.25
0
LINE
8
0
10
124
20
-98.25
11
112
21
-98.25
0
LINE
8
0
10
109
20
-101.25
11
109
21
-113.25
0
LINE
8
0
10
112
20
-97.25
11
124
21
-97.25
0
LINE
8
0
10
127
20
-94.25
11
127
21
-82.25
0
LINE
8
0
10
124
20
-79.25
11
112
21
-79.25
0
LINE
8
0
10
109
20
-82.25
11
109
21
-94.25
0
LINE
8
0
10
131
20
-151.875
11
143
21
-151.875
0
LINE
8
0
10
146
20
-148.875
11
146
21
-136.875
0
LINE
8
0
10
143
20
-133.875
11
131
21
-133.875
0
LINE
8
0
10
128
20
-136.875
11
128
21
-148.875
0
LINE
8
0
10
131
20
-132.875
11
143
21
-132.875
0
LINE
8
0
10
146
20
-129.875
11
146
21
-117.875
0
LINE
8
0
10
143
20
-114.875
11
131
21
-114.875
0
LINE
8
0
10
128
20
-117.875
11
128
21
-129.875
0
LINE
8
0
10
131
20
-113.875
11
143
21
-113.875
0
LINE
8
0
10
146
20
-110.875
11
146
21
-98.875
0
LINE
8
0
10
143
20
-95.875
11
131
21
-95.875
0
LINE
8
0
10
128
20
-98.875
11
128
21
-110.875
0
LINE
8
0
10
131
20
-94.875
11
143
21
-94.875
0
LINE
8
0
10
146
20
-91.875
11
146
21
-79.875
0
LINE
8
0
10
143
20
-76.875
11
131
21
-76.875
0
LINE
8
0
10
128
20
-79.875
11
128
21
-91.875
0
LINE
8
0
10
150
20
-154.25
11
162
21
-154.25
0
LINE
8
0
10
165
20
-151.25
11
165
21
-139.25
0
LINE
8
0
10
162
20
-136.25
11
150
21
-136.25
0
LINE
8
0
10
147
20
-139.25
11
147
21
-151.25
0
LINE
8
0
10
150
20
-135.25
11
162
21
-135.25
0
LINE
8
0
10
165
20
-132.25
11
165
21
-120.25
0
LINE
8
0
10
162
20
-117.25
11
150
21
-117.25
0
LINE
8
0
10
147
20
-120.25
11
147
21
-132.25
0
LINE
8
0
10
150
20
-116.25
11
162
21
-116.25
0
LINE
8
0
10
165
20
-113.25
11
165
21
-101.25
0
LINE
8
0
10
162
20
-98.25
11
150
21
-98.25
0
LINE
8
0
10
147
20
-101.25
11
147
21
-113.25
0
LINE
8
0
10
150
20
-97.25
11
162
21
-97.25
0
LINE
8
0
10
165
20
-94.25
11
165
21
-82.25
0
LINE
8
0
10
162
20
-79.25
11
150
21
-79.25
0
LINE
8
0
10
147
20
-82.25
11
147
21
-94.25
0
LINE
8
0
10
169
20
-156.625
11
181
21
-156.625
0
LINE
8
0
10
184
20
-153.625
11
184
21
-141.625
0
LINE
8
0
10
181
20
-138.625
11
169
21
-138.625
0
LINE
8
0
10
166
20
-141.625
11
166
21
-153.625
0
LINE
8
0
10
169
20
-137.625
11
181
21
-137.625
0
LINE
8
0
10
184
20
-134.625
11
184
21
-122.625
0
LINE
8
0
10
181
20
-119.625
11
169
21
-119.625
0
LINE
8
0
10
166
20
-122.625
11
166
21
-134.625
0
LINE
8
0
10
169
20
-118.625
11
181
21
-118.625
0
LINE
8
0
10
184
20
-115.625
11
184
21
-103.625
0
LINE
8
0
10
181
20
-100.625
11
169
21
-100.625
0
LINE
8
0
10
166
20
-103.625
11
166
21
-115.625
0
LINE
8
0
10
169
20
-99.625
11
181
21
-99.625
0
LINE
8
0
10
184
20
-96.625
11
184
21
-84.625
0
LINE
8
0
10
181
20
-81.625
11
169
21
-81.625
0
LINE
8
0
10
166
20
-84.625
11
166
21
-96.625
0
LINE
8
0
10
114
20
-176.25
11
126
21
-176.25
0
LINE
8
0
10
129
20
-173.25
11
129
21
-161.25
0
LINE
8
0
10
126
20
-158.25
11
114
21
-158.25
0
LINE
8
0
10
111
20
-161.25
11
111
21
-173.25
0
LINE
8
0
10
133
20
-176.25
11
145
21
-176.25
0
LINE
8
0
10
148
20
-173.25
11
148
21
-161.25
0
LINE
8
0
10
145
20
-158.25
11
133
21
-158.25
0
LINE
8
0
10
130
20
-161.25
11
130
21
-173.25
0
LINE
8
0
10
152
20
-176.25
11
164
21
-176.25
0
LINE
8
0
10
167
20
-173.25
11
167
21
-161.25
0
LINE
8
0
10
164
20
-158.25
11
152
21
-158.25
0
LINE
8
0
10
149
20
-161.25
11
149
21
-173.25
0
LINE
8
0
10
171.3038476
20
-176.7942286
11
181.6961524
21
-182.7942286
0
LINE
8
0
10
185.7942286
20
-181.6961524
11
191.7942286
21
-171.3038476
0
LINE
8
0
10
190.6961524
20
-167.2057714
11
180.3038476
21
-161.2057714
0
LINE
8
0
10
176.2057714
20
-162.3038476
11
170.2057714
21
-172.6961524
0
LINE
8
0
10
364
20
-159
11
376
21
-159
0
LINE
8
0
10
379
20
-156
11
379
21
-144
0
LINE
8
0
10
376
20
-141
11
364
21
-141
0
LINE
8
0
10
361
20
-144
11
361
21
-156
0
LINE
8
0
10
364
20
-140
11
376
21
-140
0
LINE
8
0
10
379
20
-137
11
379
21
-125
0
LINE
8
0
10
376
20
-122
11
364
21
-122
0
LINE
8
0
10
361
20
-125
11
361
21
-137
0
LINE
8
0
10
364
20
-121
11
376
21
-121
0
LINE
8
0
10
379
20
-118
11
379
21
-106
0
LINE
8
0
10
376
20
-103
11
364
21
-103
0
LINE
8
0
10
361
20
-106
11
361
21
-118
0
LINE
8
0
10
364
20
-102
11
376
21
-102
0
LINE
8
0
10
379
20
-99
11
379
21
-87
0
LINE
8
0
10
376
20
-84
11
364
21
-84
0
LINE
8
0
10
361
20
-87
11
361
21
-99
0
LINE
8
0
10
345
20
-159
11
357
21
-159
0
LINE
8
0
10
360
20
-156
11
360
21
-144
0
LINE
8
0
10
357
20
-141
11
345
21
-141
0
LINE
8
0
10
342
20
-144
11
342
21
-156
0
LINE
8
0
10
345
20
-140
11
357
21
-140
0
LINE
8
0
10
360
20
-137
11
360
21
-125
0
LINE
8
0
10
357
20
-122
11
345
21
-122
0
LINE
8
0
10
342
20
-125
11
342
21
-137
0
LINE
8
0
10
345
20
-121
11
357
21
-121
0
LINE
8
0
10
360
20
-118
11
360
21
-106
0
LINE
8
0
10
357
20
-103
11
345
21
-103
0
LINE
8
0
10
342
20
-106
11
342
21
-118
0
LINE
8
0
10
345
20
-102
11
357
21
-102
0
LINE
8
0
10
360
20
-99
11
360
21
-87
0
LINE
8
0
10
357
20
-84
11
345
21
-84
0
LINE
8
0
10
342
20
-87
11
342
21
-99
0
LINE
8
0
10
326
20
-154.25
11
338
21
-154.25
0
LINE
8
0
10
341
20
-151.25
11
341
21
-139.25
0
LINE
8
0
10
338
20
-136.25
11
326
21
-136.25
0
LINE
8
0
10
323
20
-139.25
11
323
21
-151.25
0
LINE
8
0
10
326
20
-135.25
11
338
21
-135.25
0
LINE
8
0
10
341
20
-132.25
11
341
21
-120.25
0
LINE
8
0
10
338
20
-117.25
11
326
21
-117.25
0
LINE
8
0
10
323
20
-120.25
11
323
21
-132.25
0
LINE
8
0
10
326
20
-116.25
11
338
21
-116.25
0
LINE
8
0
10
341
20
-113.25
11
341
21
-101.25
0
LINE
8
0
10
338
20
-98.25
11
326
21
-98.25
0
LINE
8
0
10
323
20
-101.25
11
323
21
-113.25
0
LINE
8
0
10
326
20
-97.25
11
338
21
-97.25
0
LINE
8
0
10
341
20
-94.25
11
341
21
-82.25
0
LINE
8
0
10
338
20
-79.25
11
326
21
-79.25
0
LINE
8
0
10
323
20
-82.25
11
323
21
-94.25
0
LINE
8
0
10
307
20
-151.875
11
319
21
-151.875
0
LINE
8
0
10
322
20
-148.875
11
322
21
-136.875
0
LINE
8
0
10
319
20
-133.875
11
307
21
-133.875
0
LINE
8
0
10
304
20
-136.875
11
304
21
-148.875
0
LINE
8
0
10
307
20
-132.875
11
319
21
-132.875
0
LINE
8
0
10
322
20
-129.875
11
322
21
-117.875
0
LINE
8
0
10
319
20
-114.875
11
307
21
-114.875
0
LINE
8
0
10
304
20
-117.875
11
304
21
-129.875
0
LINE
8
0
10
307
20
-113.875
11
319
21
-113.875
0
LINE
8
0
10
322
20
-110.875
11
322
21
-98.875
0
LINE
8
0
10
319
20
-95.875
11
307
21
-95.875
0
LINE
8
0
10
304
20
-98.875
11
304
21
-110.875
0
LINE
8
0
10
307
20
-94.875
11
319
21
-94.875
0
LINE
8
0
10
322
20
-91.875
11
322
21
-79.875
0
LINE
8
0
10
319
20
-76.875
11
307
21
-76.875
0
LINE
8
0
10
304
20
-79.875
11
304
21
-91.875
0
LINE
8
0
10
288
20
-154.25
11
300
21
-154.25
0
LINE
8
0
10
303
20
-151.25
11
303
21
-139.25
0
LINE
8
0
10
300
20
-136.25
11
288
21
-136.25
0
LINE
8
0
10
285
20
-139.25
11
285
21
-151.25
0
LINE
8
0
10
288
20
-135.25
11
300
21
-135.25
0
LINE
8
0
10
303
20
-132.25
11
303
21
-120.25
0
LINE
8
0
10
300
20
-117.25
11
288
21
-117.25
0
LINE
8
0
10
285
20
-120.25
11
285
21
-132.25
0
LINE
8
0
10
288
20
-116.25
11
300
21
-116.25
0
LINE
8
0
10
303
20
-113.25
11
303
21
-101.25
0
LINE
8
0
10
300
20
-98.25
11
288
21
-98.25
0
LINE
8
0
10
285
20
-101.25
11
285
21
-113.25
0
LINE
8
0
10
288
20
-97.25
11
300
21
-97.25
0
LINE
8
0
10
303
20
-94.25
11
303
21
-82.25
0
LINE
8
0
10
300
20
-79.25
11
288
21
-79.25
0
LINE
8
0
10
285
20
-82.25
11
285
21
-94.25
0
LINE
8
0
10
269
20
-156.625
11
281
21
-156.625
0
LINE
8
0
10
284
20
-153.625
11
284
21
-141.625
0
LINE
8
0
10
281
20
-138.625
11
269
21
-138.625
0
LINE
8
0
10
266
20
-141.625
11
266
21
-153.625
0
LINE
8
0
10
269
20
-137.625
11
281
21
-137.625
0
LINE
8
0
10
284
20
-134.625
11
284
21
-122.625
0
LINE
8
0
10
281
20
-119.625
11
269
21
-119.625
0
LINE
8
0
10
266
20
-122.625
11
266
21
-134.625
0
LINE
8
0
10
269
20
-118.625
11
281
21
-118.625
0
LINE
8
0
10
284
20
-115.625
11
284
21
-103.625
0
LINE
8
0
10
281
20
-100.625
11
269
21
-100.625
0
LINE
8
0
10
266
20
-103.625
11
266
21
-115.625
0
LINE
8
0
10
269
20
-99.625
11
281
21
-99.625
0
LINE
8
0
10
284
20
-96.625
11
284
21
-84.625
0
LINE
8
0
10
281
20
-81.625
11
269
21
-81.625
0
LINE
8
0
10
266
20
-84.625
11
266
21
-96.625
0
LINE
8
0
10
324
20
-176.25
11
336
21
-176.25
0
LINE
8
0
10
339
20
-173.25
11
339
21
-161.25
0
LINE
8
0
10
336
20
-158.25
11
324
21
-158.25
0
LINE
8
0
10
321
20
-161.25
11
321
21
-173.25
0
LINE
8
0
10
305
20
-176.25
11
317
21
-176.25
0
LINE
8
0
10
320
20
-173.25
11
320
21
-161.25
0
LINE
8
0
10
317
20
-158.25
11
305
21
-158.25
0
LINE
8
0
10
302
20
-161.25
11
302
21
-173.25
0
LINE
8
0
10
286
20
-176.25
11
298
21
-176.25
0
LINE
8
0
10
301
20
-173.25
11
301
21
-161.25
0
LINE
8
0
10
298
20
-158.25
11
286
21
-158.25
0
LINE
8
0
10
283
20
-161.25
11
283
21
-173.25
0
LINE
8
0
10
268.3038476
20
-182.7942286
11
278.6961524
21
-176.7942286
0
LINE
8
0
10
279.7942286
20
-172.6961524
11
273.7942286
21
-162.3038476
0
LINE
8
0
10
269.6961524
20
-161.2057714
11
259.3038476
21
-167.2057714
0
LINE
8
0
10
258.2057714
20
-171.3038476
11
264.2057714
21
-181.6961524
0
ARC
8
0
10
86
20
-156
40
3
50
270
51
0
0
ARC
8
0
10
86
20
-144
40
3
50
0
51
90
0
ARC
8
0
10
74
20
-144
40
3
50
90
51
180
0
ARC
8
0
10
74
20
-156
40
3
50
180
51
270
0
ARC
8
0
10
86
20
-137
40
3
50
270
51
0
0
ARC
8
0
10
86
20
-125
40
3
50
0
51
90
0
ARC
8
0
10
74
20
-125
40
3
50
90
51
180
0
ARC
8
0
10
74
20
-137
40
3
50
180
51
270
0
ARC
8
0
10
86
20
-118
40
3
50
270
51
0
0
ARC
8
0
10
86
20
-106
40
3
50
0
51
90
0
ARC
8
0
10
74
20
-106
40
3
50
90
51
180
0
ARC
8
0
10
74
20
-118
40
3
50
180
51
270
0
ARC
8
0
10
86
20
-99
40
3
50
270
51
0
0
ARC
8
0
10
86
20
-87
40
3
50
0
51
90
0
ARC
8
0
10
74
20
-87
40
3
50
90
51
180
0
ARC
8
0
10
74
20
-99
40
3
50
180
51
270
0
ARC
8
0
10
105
20
-156
40
3
50
270
51
0
0
ARC
8
0
10
105
20
-144
40
3
50
0
51
90
0
ARC
8
0
10
93
20
-144
40
3
50
90
51
180
0
ARC
8
0
10
93
20
-156
40
3
50
180
51
270
0
ARC
8
0
10
105
20
-137
40
3
50
270
51
0
0
ARC
8
0
10
105
20
-125
40
3
50
0
51
90
0
ARC
8
0
10
93
20
-125
40
3
50
90
51
180
0
ARC
8
0
10
93
20
-137
40
3
50
180
51
270
0
ARC
8
0
10
105
20
-118
40
3
50
270
51
0
0
ARC
8
0
10
105
20
-106
40
3
50
0
51
90
0
ARC
8
0
10
93
20
-106
40
3
50
90
51
180
0
ARC
8
0
10
93
20
-118
40
3
50
180
51
270
0
ARC
8
0
10
105
20
-99
40
3
50
270
51
0
0
ARC
8
0
10
105
20
-87
40
3
50
0
51
90
0
ARC
8
0
10
93
20
-87
40
3
50
90
51
180
0
ARC
8
0
10
93
20
-99
40
3
50
180
51
270
0
ARC
8
0
10
124
20
-151.25
40
3
50
270
51
0
0
ARC
8
0
10
124
20
-139.25
40
3
50
0
51
90
0
ARC
8
0
10
112
20
-139.25
40
3
50
90
51
180
0
ARC
8
0
10
112
20
-151.25
40
3
50
180
51
270
0
ARC
8
0
10
124
20
-132.25
40
3
50
270
51
0
0
ARC
8
0
10
124
20
-120.25
40
3
50
0
51
90
0
ARC
8
0
10
112
20
-120.25
40
3
50
90
51
180
0
ARC
8
0
10
112
20
-132.25
40
3
50
180
51
270
0
ARC
8
0
10
124
20
-113.25
40
3
50
270
51
0
0
ARC
8
0
10
124
20
-101.25
40
3
50
0
51
90
0
ARC
8
0
10
112
20
-101.25
40
3
50
90
51
180
0
ARC
8
0
10
112
20
-113.25
40
3
50
180
51
270
0
ARC
8
0
10
124
20
-94.25
40
3
50
270
51
0
0
ARC
8
0
10
124
20
-82.25
40
3
50
0
51
90
0
ARC
8
0
10
112
20
-82.25
40
3
50
90
51
180
0
ARC
8
0
10
112
20
-94.25
40
3
50
180
51
270
0
ARC
8
0
10
143
20
-148.875
40
3
50
270
51
0
0
ARC
8
0
10
143
20
-136.875
40
3
50
0
51
90
0
ARC
8
0
10
131
20
-136.875
40
3
50
90
51
180
0
ARC
8
0
10
131
20
-148.875
40
3
50
180
51
270
0
ARC
8
0
10
143
20
-129.875
40
3
50
270
51
0
0
ARC
8
0
10
143
20
-117.875
40
3
50
0
51
90
0
ARC
8
0
10
131
20
-117.875
40
3
50
90
51
180
0
ARC
8
0
10
131
20
-129.875
40
3
50
180
51
270
0
ARC
8
0
10
143
20
-110.875
40
3
50
270
51
0
0
ARC
8
0
10
143
20
-98.875
40
3
50
0
51
90
0
ARC
8
0
10
131
20
-98.875
40
3
50
90
51
180
0
ARC
8
0
10
131
20
-110.875
40
3
50
180
51
270
0
ARC
8
0
10
143
20
-91.875
40
3
50
270
51
0
0
ARC
8
0
10
143
20
-79.875
40
3
50
0
51
90
0
ARC
8
0
10
131
20
-79.875
40
3
50
90
51
180
0
ARC
8
0
10
131
20
-91.875
40
3
50
180
51
270
0
ARC
8
0
10
162
20
-151.25
40
3
50
270
51
0
0
ARC
8
0
10
162
20
-139.25
40
3
50
0
51
90
0
ARC
8
0
10
150
20
-139.25
40
3
50
90
51
180
0
ARC
8
0
10
150
20
-151.25
40
3
50
180
51
270
0
ARC
8
0
10
162
20
-132.25
40
3
50
270
51
0
0
ARC
8
0
10
162
20
-120.25
40
3
50
0
51
90
0
ARC
8
0
10
150
20
-120.25
40
3
50
90
51
180
0
ARC
8
0
10
150
20
-132.25
40
3
50
180
51
270
0
ARC
8
0
10
162
20
-113.25
40
3
50
270
51
0
0
ARC
8
0
10
162
20
-101.25
40
3
50
0
51
90
0
ARC
8
0
10
150
20
-101.25
40
3
50
90
51
180
0
ARC
8
0
10
150
20
-113.25
40
3
50
180
51
270
0
ARC
8
0
10
162
20
-94.25
40
3
50
270
51
0
0
ARC
8
0
10
162
20
-82.25
40
3
50
0
51
90
0
ARC
8
0
10
150
20
-82.25
40
3
50
90
51
180
0
ARC
8
0
10
150
20
-94.25
40
3
50
180
51
270
0
ARC
8
0
10
181
20
-153.625
40
3
50
270
51
0
0
ARC
8
0
10
181
20
-141.625
40
3
50
0
51
90
0
ARC
8
0
10
169
20
-141.625
40
3
50
90
51
180
0
ARC
8
0
10
169
20
-153.625
40
3
50
180
51
270
0
ARC
8
0
10
181
20
-134.625
40
3
50
270
51
0
0
ARC
8
0
10
181
20
-122.625
40
3
50
0
51
90
0
ARC
8
0
10
169
20
-122.625
40
3
50
90
51
180
0
ARC
8
0
10
169
20
-134.625
40
3
50
180
51
270
0
ARC
8
0
10
181
20
-115.625
40
3
50
270
51
0
0
ARC
8
0
10
181
20
-103.625
40
3
50
0
51
90
0
ARC
8
0
10
169
20
-103.625
40
3
50
90
51
180
0
ARC
8
0
10
169
20
-115.625
40
3
50
180
51
270
0
ARC
8
0
10
181
20
-96.625
40
3
50
270
51
0
0
ARC
8
0
10
181
20
-84.625
40
3
50
0
51
90
0
ARC
8
0
10
169
20
-84.625
40
3
50
90
51
180
0
ARC
8
0
10
169
20
-96.625
40
3
50
180
51
270
0
ARC
8
0
10
126
20
-173.25
40
3
50
270
51
0
0
ARC
8
0
10
126
20
-161.25
40
3
50
0
51
90
0
ARC
8
0
10
114
20
-161.25
40
3
50
90
51
180
0
ARC
8
0
10
114
20
-173.25
40
3
50
180
51
270
0
ARC
8
0
10
145
20
-173.25
40
3
50
270
51
0
0
ARC
8
0
10
145
20
-161.25
40
3
50
0
51
90
0
ARC
8
0
10
133
20
-161.25
40
3
50
90
51
180
0
ARC
8
0
10
133
20
-173.25
40
3
50
180
51
270
0
ARC
8
0
10
164
20
-173.25
40
3
50
270
51
0
0
ARC
8
0
10
164
20
-161.25
40
3
50
0
51
90
0
ARC
8
0
10
152
20
-161.25
40
3
50
90
51
180
0
ARC
8
0
10
152
20
-173.25
40
3
50
180
51
270
0
ARC
8
0
10
376
20
-156
40
3
50
270
51
0
0
ARC
8
0
10
376
20
-144
40
3
50
0
51
90
0
ARC
8
0
10
364
20
-144
40
3
50
90
51
180
0
ARC
8
0
10
364
20
-156
40
3
50
180
51
270
0
ARC
8
0
10
376
20
-137
40
3
50
270
51
0
0
ARC
8
0
10
376
20
-125
40
3
50
0
51
90
0
ARC
8
0
10
364
20
-125
40
3
50
90
51
180
0
ARC
8
0
10
364
20
-137
40
3
50
180
51
270
0
ARC
8
0
10
376
20
-118
40
3
50
270
51
0
0
ARC
8
0
10
376
20
-106
40
3
50
0
51
90
0
ARC
8
0
10
364
20
-106
40
3
50
90
51
180
0
ARC
8
0
10
364
20
-118
40
3
50
180
51
270
0
ARC
8
0
10
376
20
-99
40
3
50
270
51
0
0
ARC
8
0
10
376
20
-87
40
3
50
0
51
90
0
ARC
8
0
10
364
20
-87
40
3
50
90
51
180
0
ARC
8
0
10
364
20
-99
40
3
50
180
51
270
0
ARC
8
0
10
357
20
-156
40
3
50
270
51
0
0
ARC
8
0
10
357
20
-144
40
3
50
0
51
90
0
ARC
8
0
10
345
20
-144
40
3
50
90
51
180
0
ARC
8
0
10
345
20
-156
40
3
50
180
51
270
0
ARC
8
0
10
357
20
-137
40
3
50
270
51
0
0
ARC
8
0
10
357
20
-125
40
3
50
0
51
90
0
ARC
8
0
10
345
20
-125
40
3
50
90
51
180
0
ARC
8
0
10
345
20
-137
40
3
50
180
51
270
0
ARC
8
0
10
357
20
-118
40
3
50
270
51
0
0
ARC
8
0
10
357
20
-106
40
3
50
0
51
90
0
ARC
8
0
10
345
20
-106
40
3
50
90
51
180
0
ARC
8
0
10
345
20
-118
40
3
50
180
51
270
0
ARC
8
0
10
357
20
-99
40
3
50
270
51
0
0
ARC
8
0
10
357
20
-87
40
3
50
0
51
90
0
ARC
8
0
10
345
20
-87
40
3
50
90
51
180
0
ARC
8
0
10
345
20
-99
40
3
50
180
51
270
0
ARC
8
0
10
338
20
-151.25
40
3
50
270
51
0
0
ARC
8
0
10
338
20
-139.25
40
3
50
0
51
90
0
ARC
8
0
10
326
20
-139.25
40
3
50
90
51
180
0
ARC
8
0
10
326
20
-151.25
40
3
50
180
51
270
0
ARC
8
0
10
338
20
-132.25
40
3
50
270
51
0
0
ARC
8
0
10
338
20
-120.25
40
3
50
0
51
90
0
ARC
8
0
10
326
20
-120.25
40
3
50
90
51
180
0
ARC
8
0
10
326
20
-132.25
40
3
50
180
51
270
0
ARC
8
0
10
338
20
-113.25
40
3
50
270
51
0
0
ARC
8
0
10
338
20
-101.25
40
3
50
0
51
90
0
ARC
8
0
10
326
20
-101.25
40
3
50
90
51
180
0
ARC
8
0
10
326
20
-113.25
40
3
50
180
51
270
0
ARC
8
0
10
338
20
-94.25
40
3
50
270
51
0
0
ARC
8
0
10
338
20
-82.25
40
3
50
0
51
90
0
ARC
8
0
10
326
20
-82.25
40
3
50
90
51
180
0
ARC
8
0
10
326
20
-94.25
40
3
50
180
51
270
0
ARC
8
0
10
319
20
-148.875
40
3
50
270
51
0
0
ARC
8
0
10
319
20
-136.875
40
3
50
0
51
90
0
ARC
8
0
10
307
20
-136.875
40
3
50
90
51
180
0
ARC
8
0
10
307
20
-148.875
40
3
50
180
51
270
0
ARC
8
0
10
319
20
-129.875
40
3
50
270
51
0
0
ARC
8
0
10
319
20
-117.875
40
3
50
0
51
90
0
ARC
8
0
10
307
20
-117.875
40
3
50
90
51
180
0
ARC
8
0
10
307
20
-129.875
40
3
50
180
51
270
0
ARC
8
0
10
319
20
-110.875
40
3
50
270
51
0
0
ARC
8
0
10
319
20
-98.875
40
3
50
0
51
90
0
ARC
8
0
10
307
20
-98.875
40
3
50
90
51
180
0
ARC
8
0
10
307
20
-110.875
40
3
50
180
51
270
0
ARC
8
0
10
319
20
-91.875
40
3
50
270
51
0
0
ARC
8
0
10
319
20
-79.875
40
3
50
0
51
90
0
ARC
8
0
10
307
20
-79.875
40
3
50
90
51
180
0
ARC
8
0
10
307
20
-91.875
40
3
50
180
51
270
0
ARC
8
0
10
300
20
-151.25
40
3
50
270
51
0
0
ARC
8
0
10
300
20
-139.25
40
3
50
0
51
90
0
ARC
8
0
10
288
20
-139.25
40
3
50
90
51
180
0
ARC
8
0
10
288
20
-151.25
40
3
50
180
51
270
0
ARC
8
0
10
300
20
-132.25
40
3
50
270
51
0
0
ARC
8
0
10
300
20
-120.25
40
3
50
0
51
90
0
ARC
8
0
10
288
20
-120.25
40
3
50
90
51
180
0
ARC
8
0
10
288
20
-132.25
40
3
50
180
51
270
0
ARC
8
0
10
300
20
-113.25
40
3
50
270
51
0
0
ARC
8
0
10
300
20
-101.25
40
3
50
0
51
90
0
ARC
8
0
10
288
20
-101.25
40
3
50
90
51
180
0
ARC
8
0
10
288
20
-113.25
40
3
50
180
51
270
0
ARC
8
0
10
300
20
-94.25
40
3
50
270
51
0
0
ARC
8
0
10
300
20
-82.25
40
3
50
0
51
90
0
ARC
8
0
10
288
20
-82.25
40
3
50
90
51
180
0
ARC
8
0
10
288
20
-94.25
40
3
50
180
51
270
0
ARC
8
0
10
281
20
-153.625
40
3
50
270
51
0
0
ARC
8
0
10
281
20
-141.625
40
3
50
0
51
90
0
ARC
8
0
10
269
20
-141.625
40
3
50
90
51
180
0
ARC
8
0
10
269
20
-153.625
40
3
50
180
51
270
0
ARC
8
0
10
281
20
-134.625
40
3
50
270
51
0
0
ARC
8
0
10
281
20
-122.625
40
3
50
0
51
90
0
ARC
8
0
10
269
20
-122.625
40
3
50
90
51
180
0
ARC
8
0
10
269
20
-134.625
40
3
50
180
51
270
0
ARC
8
0
10
281
20
-115.625
40
3
50
270
51
0
0
ARC
8
0
10
281
20
-103.625
40
3
50
0
51
90
0
ARC
8
0
10
269
20
-103.625
40
3
50
90
51
180
0
ARC
8
0
10
269
20
-115.625
40
3
50
180
51
270
0
ARC
8
0
10
281
20
-96.625
40
3
50
270
51
0
0
ARC
8
0
10
281
20
-84.625
40
3
50
0
51
90
0
ARC
8
0
10
269
20
-84.625
40
3
50
90
51
180
0
ARC
8
0
10
269
20
-96.625
40
3
50
180
51
270
0
ARC
8
0
10
336
20
-173.25
40
3
50
270
51
0
0
ARC
8
0
10
336
20
-161.25
40
3
50
0
51
90
0
ARC
8
0
10
324
20
-161.25
40
3
50
90
51
180
0
ARC
8
0
10
324
20
-173.25
40
3
50
180
51
270
0
ARC
8
0
10
317
20
-173.25
40
3
50
270
51
0
0
ARC
8
0
10
317
20
-161.25
40
3
50
0
51
90
0
ARC
8
0
10
305
20
-161.25
40
3
50
90
51
180
0
ARC
8
0
10
305
20
-173.25
40
3
50
180
51
270
0
ARC
8
0
10
298
20
-173.25
40
3
50
270
51
0
0
ARC
8
0
10
298
20
-161.25
40
3
50
0
51
90
0
ARC
8
0
10
286
20
-161.25
40
3
50
90
51
180
0
ARC
8
0
10
286
20
-173.25
40
3
50
180
51
270
0
ARC
8
0
10
183.1961524
20
-180.1961524
40
3
50
239.9999999
51
329.9999999
0
ARC
8
0
10
189.1961524
20
-169.8038476
40
3
50
329.9999999
51
59.9999999
0
ARC
8
0
10
178.8038476
20
-163.8038476
40
3
50
59.9999999
51
149.9999999
0
ARC
8
0
10
172.8038476
20
-174.1961524
40
3
50
149.9999999
51
239.9999999
0
ARC
8
0
10
277.1961524
20
-174.1961524
40
3
50
300.0000001
51
30.0000001
0
ARC
8
0
10
271.1961524
20
-163.8038476
40
3
50
30.0000001
51
120.0000001
0
ARC
8
0
10
260.8038476
20
-169.8038476
40
3
50
120.0000001
51
210.0000001
0
ARC
8
0
10
266.8038476
20
-180.1961524
40
3
50
210.0000001
51
300.0000001
0
LINE
8
0
10
182.3416636
20
-195.6761705
11
192.7339684
21
-201.6761705
0
LINE
8
0
10
196.8320446
20
-200.5780943
11
207.3320446
21
-182.3915607
0
LINE
8
0
10
206.2339684
20
-178.2934845
11
195.8416636
21
-172.2934845
0
LINE
8
0
10
191.7435874
20
-173.3915607
11
181.2435874
21
-191.5780943
0
LINE
8
0
10
257.2660316
20
-201.6761705
11
267.6583364
21
-195.6761705
0
LINE
8
0
10
268.7564126
20
-191.5780943
11
258.2564126
21
-173.3915607
0
LINE
8
0
10
254.1583364
20
-172.2934845
11
243.7660316
21
-178.2934845
0
LINE
8
0
10
242.6679554
20
-182.3915607
11
253.1679554
21
-200.5780943
0
ARC
8
0
10
266.1583364
20
-193.0780943
40
3
50
300.0000001
51
30.0000001
0
ARC
8
0
10
255.6583364
20
-174.8915607
40
3
50
30.0000001
51
120.0000001
0
ARC
8
0
10
245.2660316
20
-180.8915607
40
3
50
120.0000001
51
210.0000001
0
ARC
8
0
10
255.7660316
20
-199.0780943
40
3
50
210.0000001
51
300.0000001
0
ARC
8
0
10
194.2339684
20
-199.0780943
40
3
50
239.9999999
51
329.9999999
0
ARC
8
0
10
204.7339684
20
-180.8915607
40
3
50
329.9999999
51
59.9999999
0
ARC
8
0
10
194.3416636
20
-174.8915607
40
3
50
59.9999999
51
149.9999999
0
ARC
8
0
10
183.8416636
20
-193.0780943
40
3
50
149.9999999
51
239.9999999
0
LINE
8
0
10
247.01
20
-114.125
11
262.79
21
-114.125
0
LINE
8
0
10
263.79
20
-113.125
11
263.79
21
-82.125
0
LINE
8
0
10
246.01
20
-82.125
11
246.01
21
-113.125
0
ARC
8
0
10
262.79
20
-113.125
40
1
50
270
51
0
0
ARC
8
0
10
262.79
20
-82.125
40
1
50
0
51
90
0
ARC
8
0
10
247.01
20
-82.125
40
1
50
90
51
180
0
ARC
8
0
10
247.01
20
-113.125
40
1
50
180
51
270
0
LINE
8
0
10
250.53
20
-87.775
11
259.27
21
-87.775
0
LINE
8
0
10
259.37
20
-87.675
11
259.37
21
-80.525
0
LINE
8
0
10
259.27
20
-80.425
11
250.53
21
-80.425
0
LINE
8
0
10
250.43
20
-80.525
11
250.43
21
-87.675
0
ARC
8
0
10
259.27
20
-87.675
40
0.1
50
270
51
0
0
ARC
8
0
10
259.27
20
-80.525
40
0.1
50
0
51
90
0
ARC
8
0
10
250.53
20
-80.525
40
0.1
50
90
51
180
0
ARC
8
0
10
250.53
20
-87.675
40
0.1
50
180
51
270
0
LINE
8
0
10
188.6
20
-119.125
11
201.6
21
-119.125
0
LINE
8
0
10
202.1
20
-118.625
11
202.1
21
-83.625
0
LINE
8
0
10
201.6
20
-83.125
11
188.6
21
-83.125
0
LINE
8
0
10
188.1
20
-83.625
11
188.1
21
-118.625
0
ARC
8
0
10
201.6
20
-118.625
40
0.5
50
270
51
0
0
ARC
8
0
10
201.6
20
-83.625
40
0.5
50
0
51
90
0
ARC
8
0
10
188.6
20
-83.625
40
0.5
50
90
51
180
0
ARC
8
0
10
188.6
20
-118.625
40
0.5
50
180
51
270
0
LINE
8
0
10
188.79
20
-119.155
11
201.41
21
-119.155
0
LINE
8
0
10
201.51
20
-119.055
11
201.51
21
-116.595
0
LINE
8
0
10
201.41
20
-116.495
11
188.79
21
-116.495
0
LINE
8
0
10
188.69
20
-116.595
11
188.69
21
-119.055
0
ARC
8
0
10
201.41
20
-119.055
40
0.1
50
270
51
0
0
ARC
8
0
10
201.41
20
-116.595
40
0.1
50
0
51
90
0
ARC
8
0
10
188.79
20
-116.595
40
0.1
50
90
51
180
0
ARC
8
0
10
188.79
20
-119.055
40
0.1
50
180
51
270
0
LINE
8
0
10
189.7
20
-114.175
11
200.5
21
-114.175
0
LINE
8
0
10
200.5
20
-114.175
11
200.5
21
-89.575
0
LINE
8
0
10
200.5
20
-89.575
11
189.7
21
-89.575
0
LINE
8
0
10
189.7
20
-89.575
11
189.7
21
-114.175
0
LINE
8
0
10
187.21
20
-114.125
11
202.99
21
-114.125
0
LINE
8
0
10
203.99
20
-113.125
11
203.99
21
-82.125
0
LINE
8
0
10
186.21
20
-82.125
11
186.21
21
-113.125
0
ARC
8
0
10
202.99
20
-113.125
40
1
50
270
51
0
0
ARC
8
0
10
202.99
20
-82.125
40
1
50
0
51
90
0
ARC
8
0
10
187.21
20
-82.125
40
1
50
90
51
180
0
ARC
8
0
10
187.21
20
-113.125
40
1
50
180
51
270
0
LINE
8
0
10
190.73
20
-87.775
11
199.47
21
-87.775
0
LINE
8
0
10
199.57
20
-87.675
11
199.57
21
-80.525
0
LINE
8
0
10
199.47
20
-80.425
11
190.73
21
-80.425
0
LINE
8
0
10
190.63
20
-80.525
11
190.63
21
-87.675
0
ARC
8
0
10
199.47
20
-87.675
40
0.1
50
270
51
0
0
ARC
8
0
10
199.47
20
-80.525
40
0.1
50
0
51
90
0
ARC
8
0
10
190.73
20
-80.525
40
0.1
50
90
51
180
0
ARC
8
0
10
190.73
20
-87.675
40
0.1
50
180
51
270
0
LINE
8
0
10
248.4
20
-119.125
11
261.4
21
-119.125
0
LINE
8
0
10
261.9
20
-118.625
11
261.9
21
-83.625
0
LINE
8
0
10
261.4
20
-83.125
11
248.4
21
-83.125
0
LINE
8
0
10
247.9
20
-83.625
11
247.9
21
-118.625
0
ARC
8
0
10
261.4
20
-118.625
40
0.5
50
270
51
0
0
ARC
8
0
10
261.4
20
-83.625
40
0.5
50
0
51
90
0
ARC
8
0
10
248.4
20
-83.625
40
0.5
50
90
51
180
0
ARC
8
0
10
248.4
20
-118.625
40
0.5
50
180
51
270
0
LINE
8
0
10
248.59
20
-119.155
11
261.21
21
-119.155
0
LINE
8
0
10
261.31
20
-119.055
11
261.31
21
-116.595
0
LINE
8
0
10
261.21
20
-116.495
11
248.59
21
-116.495
0
LINE
8
0
10
248.49
20
-116.595
11
248.49
21
-119.055
0
ARC
8
0
10
261.21
20
-119.055
40
0.1
50
270
51
0
0
ARC
8
0
10
261.21
20
-116.595
40
0.1
50
0
51
90
0
ARC
8
0
10
248.59
20
-116.595
40
0.1
50
90
51
180
0
ARC
8
0
10
248.59
20
-119.055
40
0.1
50
180
51
270
0
LINE
8
0
10
249.5
20
-114.175
11
260.3
21
-114.175
0
LINE
8
0
10
260.3
20
-114.175
11
260.3
21
-89.575
0
LINE
8
0
10
260.3
20
-89.575
11
249.5
21
-89.575
0
LINE
8
0
10
249.5
20
-89.575
11
249.5
21
-114.175
0
CIRCLE
8
0
10
89.5
20
-140.5
40
2.15
0
CIRCLE
8
0
10
89.5
20
-102.5
40
2.15
0
CIRCLE
8
0
10
165.5
20
-98.9375
40
2.15
0
CIRCLE
8
0
10
108.7
20
-161.3
40
2.15
0
CIRCLE
8
0
10
127.5
20
-115.5625
40
2.15
0
CIRCLE
8
0
10
172.6076952
20
-162.5358984
40
2.15
0
CIRCLE
8
0
10
360.5
20
-140.5
40
2.15
0
CIRCLE
8
0
10
360.5
20
-102.5
40
2.15
0
CIRCLE
8
0
10
284.5
20
-98.9375
40
2.15
0
CIRCLE
8
0
10
341.3
20
-161.3
40
2.15
0
CIRCLE
8
0
10
322.5
20
-115.5625
40
2.15
0
CIRCLE
8
0
10
277.3923048
20
-162.5358984
40
2.15
0
ENDSEC
0
EOF