0
SECTION
2
HEADER
9
$INSUNITS
70
4
0
ENDSEC
0
SECTION
2
TABLES
0
TABLE
2
LTYPE
0
LTYPE
72
65
70
64
2
CONTINUOUS
3
______
73
0
40
0
0
ENDTAB
0
TABLE
2
LAYER
0
ENDTAB
0
ENDSEC
0
SECTION
2
ENTITIES
0
LINE
8
0
10
140.5
20
-159.5
11
173.3267327
21
-159.5
0
LINE
8
0
10
140.5
20
-159.5
11
140.5
21
-83.5
0
LINE
8
0
10
140.5
20
-83.5
11
178.5
21
-83.5
0
LINE
8
0
10
197.5
20
-78.75
11
178.5
21
-78.75
0
LINE
8
0
10
178.5
20
-78.75
11
178.5
21
-83.5
0
LINE
8
0
10
216.5
20
-78.75
11
216.5
21
-76.375
0
LINE
8
0
10
216.5
20
-76.375
11
197.5
21
-76.375
0
LINE
8
0
10
197.5
20
-76.375
11
197.5
21
-78.75
0
LINE
8
0
10
235.5
20
-81.125
11
235.5
21
-78.75
0
LINE
8
0
10
235.5
20
-78.75
11
216.5
21
-78.75
0
LINE
8
0
10
235.5
20
-81.125
11
274.7999309
21
-81.125
0
LINE
8
0
10
180.5
20
-176.75
11
237.5
21
-176.75
0
LINE
8
0
10
173.3267327
20
-159.5
11
180.5
21
-176.75
0
LINE
8
0
10
237.5
20
-176.75
11
247.1193103
21
-181.0965517
0
LINE
8
0
10
247.1193103
20
-181.0965517
11
246.8787643
21
-191.0131895
0
LINE
8
0
10
246.8787643
20
-191.0131895
11
265.3900573
21
-201.7006895
0
LINE
8
0
10
265.3900573
20
-201.7006895
11
279.8227496
21
-176.7025331
0
LINE
8
0
10
279.8227496
20
-176.7025331
11
275.1787125
21
-173.3462414
0
LINE
8
0
10
275.1787125
20
-173.3462414
11
274.7999309
21
-170.2023104
0
LINE
8
0
10
274.7999309
20
-170.2023104
11
274.7999309
21
-81.125
0
LINE
8
0
10
144
20
-159
11
156
21
-159
0
LINE
8
0
10
159
20
-156
11
159
21
-144
0
LINE
8
0
10
156
20
-141
11
144
21
-141
0
LINE
8
0
10
141
20
-144
11
141
21
-156
0
LINE
8
0
10
144
20
-140
11
156
21
-140
0
LINE
8
0
10
159
20
-137
11
159
21
-125
0
LINE
8
0
10
156
20
-122
11
144
21
-122
0
LINE
8
0
10
141
20
-125
11
141
21
-137
0
LINE
8
0
10
144
20
-121
11
156
21
-121
0
LINE
8
0
10
159
20
-118
11
159
21
-106
0
LINE
8
0
10
156
20
-103
11
144
21
-103
0
LINE
8
0
10
141
20
-106
11
141
21
-118
0
LINE
8
0
10
144
20
-102
11
156
21
-102
0
LINE
8
0
10
159
20
-99
11
159
21
-87
0
LINE
8
0
10
156
20
-84
11
144
21
-84
0
LINE
8
0
10
141
20
-87
11
141
21
-99
0
LINE
8
0
10
163
20
-159
11
175
21
-159
0
LINE
8
0
10
178
20
-156
11
178
21
-144
0
LINE
8
0
10
175
20
-141
11
163
21
-141
0
LINE
8
0
10
160
20
-144
11
160
21
-156
0
LINE
8
0
10
163
20
-140
11
175
21
-140
0
LINE
8
0
10
178
20
-137
11
178
21
-125
0
LINE
8
0
10
175
20
-122
11
163
21
-122
0
LINE
8
0
10
160
20
-125
11
160
21
-137
0
LINE
8
0
10
163
20
-121
11
175
21
-121
0
LINE
8
0
10
178
20
-118
11
178
21
-106
0
LINE
8
0
10
175
20
-103
11
163
21
-103
0
LINE
8
0
10
160
20
-106
11
160
21
-118
0
LINE
8
0
10
163
20
-102
11
175
21
-102
0
LINE
8
0
10
178
20
-99
11
178
21
-87
0
LINE
8
0
10
175
20
-84
11
163
21
-84
0
LINE
8
0
10
160
20
-87
11
160
21
-99
0
LINE
8
0
10
182
20
-154.25
11
194
21
-154.25
0
LINE
8
0
10
197
20
-151.25
11
197
21
-139.25
0
LINE
8
0
10
194
20
-136.25
11
182
21
-136.25
0
LINE
8
0
10
179
20
-139.25
11
179
21
-151.25
0
LINE
8
0
10
182
20
-135.25
11
194
21
-135.25
0
LINE
8
0
10
197
20
-132.25
11
197
21
-120.25
0
LINE
8
0
10
194
20
-117.25
11
182
21
-117.25
0
LINE
8
0
10
179
20
-120.25
11
179
21
-132.25
0
LINE
8
0
10
182
20
-116.25
11
194
21
-116.25
0
LINE
8
0
10
197
20
-113.25
11
197
21
-101.25
0
LINE
8
0
10
194
20
-98.25
11
182
21
-98.25
0
LINE
8
0
10
179
20
-101.25
11
179
21
-113.25
0
LINE
8
0
10
182
20
-97.25
11
194
21
-97.25
0
LINE
8
0
10
197
20
-94.25
11
197
21
-82.25
0
LINE
8
0
10
194
20
-79.25
11
182
21
-79.25
0
LINE
8
0
10
179
20
-82.25
11
179
21
-94.25
0
LINE
8
0
10
201
20
-151.875
11
213
21
-151.875
0
LINE
8
0
10
216
20
-148.875
11
216
21
-136.875
0
LINE
8
0
10
213
20
-133.875
11
201
21
-133.875
0
LINE
8
0
10
198
20
-136.875
11
198
21
-148.875
0
LINE
8
0
10
201
20
-132.875
11
213
21
-132.875
0
LINE
8
0
10
216
20
-129.875
11
216
21
-117.875
0
LINE
8
0
10
213
20
-114.875
11
201
21
-114.875
0
LINE
8
0
10
198
20
-117.875
11
198
21
-129.875
0
LINE
8
0
10
201
20
-113.875
11
213
21
-113.875
0
LINE
8
0
10
216
20
-110.875
11
216
21
-98.875
0
LINE
8
0
10
213
20
-95.875
11
201
21
-95.875
0
LINE
8
0
10
198
20
-98.875
11
198
21
-110.875
0
LINE
8
0
10
201
20
-94.875
11
213
21
-94.875
0
LINE
8
0
10
216
20
-91.875
11
216
21
-79.875
0
LINE
8
0
10
213
20
-76.875
11
201
21
-76.875
0
LINE
8
0
10
198
20
-79.875
11
198
21
-91.875
0
LINE
8
0
10
220
20
-154.25
11
232
21
-154.25
0
LINE
8
0
10
235
20
-151.25
11
235
21
-139.25
0
LINE
8
0
10
232
20
-136.25
11
220
21
-136.25
0
LINE
8
0
10
217
20
-139.25
11
217
21
-151.25
0
LINE
8
0
10
220
20
-135.25
11
232
21
-135.25
0
LINE
8
0
10
235
20
-132.25
11
235
21
-120.25
0
LINE
8
0
10
232
20
-117.25
11
220
21
-117.25
0
LINE
8
0
10
217
20
-120.25
11
217
21
-132.25
0
LINE
8
0
10
220
20
-116.25
11
232
21
-116.25
0
LINE
8
0
10
235
20
-113.25
11
235
21
-101.25
0
LINE
8
0
10
232
20
-98.25
11
220
21
-98.25
0
LINE
8
0
10
217
20
-101.25
11
217
21
-113.25
0
LINE
8
0
10
220
20
-97.25
11
232
21
-97.25
0
LINE
8
0
10
235
20
-94.25
11
235
21
-82.25
0
LINE
8
0
10
232
20
-79.25
11
220
21
-79.25
0
LINE
8
0
10
217
20
-82.25
11
217
21
-94.25
0
LINE
8
0
10
239
20
-156.625
11
251
21
-156.625
0
LINE
8
0
10
254
20
-153.625
11
254
21
-141.625
0
LINE
8
0
10
251
20
-138.625
11
239
21
-138.625
0
LINE
8
0
10
236
20
-141.625
11
236
21
-153.625
0
LINE
8
0
10
239
20
-137.625
11
251
21
-137.625
0
LINE
8
0
10
254
20
-134.625
11
254
21
-122.625
0
LINE
8
0
10
251
20
-119.625
11
239
21
-119.625
0
LINE
8
0
10
236
20
-122.625
11
236
21
-134.625
0
LINE
8
0
10
239
20
-118.625
11
251
21
-118.625
0
LINE
8
0
10
254
20
-115.625
11
254
21
-103.625
0
LINE
8
0
10
251
20
-100.625
11
239
21
-100.625
0
LINE
8
0
10
236
20
-103.625
11
236
21
-115.625
0
LINE
8
0
10
239
20
-99.625
11
251
21
-99.625
0
LINE
8
0
10
254
20
-96.625
11
254
21
-84.625
0
LINE
8
0
10
251
20
-81.625
11
239
21
-81.625
0
LINE
8
0
10
236
20
-84.625
11
236
21
-96.625
0
LINE
8
0
10
184
20
-176.25
11
196
21
-176.25
0
LINE
8
0
10
199
20
-173.25
11
199
21
-161.25
0
LINE
8
0
10
196
20
-158.25
11
184
21
-158.25
0
LINE
8
0
10
181
20
-161.25
11
181
21
-173.25
0
LINE
8
0
10
203
20
-176.25
11
215
21
-176.25
0
LINE
8
0
10
218
20
-173.25
11
218
21
-161.25
0
LINE
8
0
10
215
20
-158.25
11
203
21
-158.25
0
LINE
8
0
10
200
20
-161.25
11
200
21
-173.25
0
LINE
8
0
10
222
20
-176.25
11
234
21
-176.25
0
LINE
8
0
10
237
20
-173.25
11
237
21
-161.25
0
LINE
8
0
10
234
20
-158.25
11
222
21
-158.25
0
LINE
8
0
10
219
20
-161.25
11
219
21
-173.25
0
LINE
8
0
10
241.3038476
20
-174.4192286
11
251.6961524
21
-180.4192286
0
LINE
8
0
10
255.7942286
20
-179.3211524
11
261.7942286
21
-168.9288476
0
LINE
8
0
10
260.6961524
20
-164.8307714
11
250.3038476
21
-158.8307714
0
LINE
8
0
10
246.2057714
20
-159.9288476
11
240.2057714
21
-170.3211524
0
ARC
8
0
10
156
20
-156
40
3
50
270
51
0
0
ARC
8
0
10
156
20
-144
40
3
50
0
51
90
0
ARC
8
0
10
144
20
-144
40
3
50
90
51
180
0
ARC
8
0
10
144
20
-156
40
3
50
180
51
270
0
ARC
8
0
10
156
20
-137
40
3
50
270
51
0
0
ARC
8
0
10
156
20
-125
40
3
50
0
51
90
0
ARC
8
0
10
144
20
-125
40
3
50
90
51
180
0
ARC
8
0
10
144
20
-137
40
3
50
180
51
270
0
ARC
8
0
10
156
20
-118
40
3
50
270
51
0
0
ARC
8
0
10
156
20
-106
40
3
50
0
51
90
0
ARC
8
0
10
144
20
-106
40
3
50
90
51
180
0
ARC
8
0
10
144
20
-118
40
3
50
180
51
270
0
ARC
8
0
10
156
20
-99
40
3
50
270
51
0
0
ARC
8
0
10
156
20
-87
40
3
50
0
51
90
0
ARC
8
0
10
144
20
-87
40
3
50
90
51
180
0
ARC
8
0
10
144
20
-99
40
3
50
180
51
270
0
ARC
8
0
10
175
20
-156
40
3
50
270
51
0
0
ARC
8
0
10
175
20
-144
40
3
50
0
51
90
0
ARC
8
0
10
163
20
-144
40
3
50
90
51
180
0
ARC
8
0
10
163
20
-156
40
3
50
180
51
270
0
ARC
8
0
10
175
20
-137
40
3
50
270
51
0
0
ARC
8
0
10
175
20
-125
40
3
50
0
51
90
0
ARC
8
0
10
163
20
-125
40
3
50
90
51
180
0
ARC
8
0
10
163
20
-137
40
3
50
180
51
270
0
ARC
8
0
10
175
20
-118
40
3
50
270
51
0
0
ARC
8
0
10
175
20
-106
40
3
50
0
51
90
0
ARC
8
0
10
163
20
-106
40
3
50
90
51
180
0
ARC
8
0
10
163
20
-118
40
3
50
180
51
270
0
ARC
8
0
10
175
20
-99
40
3
50
270
51
0
0
ARC
8
0
10
175
20
-87
40
3
50
0
51
90
0
ARC
8
0
10
163
20
-87
40
3
50
90
51
180
0
ARC
8
0
10
163
20
-99
40
3
50
180
51
270
0
ARC
8
0
10
194
20
-151.25
40
3
50
270
51
0
0
ARC
8
0
10
194
20
-139.25
40
3
50
0
51
90
0
ARC
8
0
10
182
20
-139.25
40
3
50
90
51
180
0
ARC
8
0
10
182
20
-151.25
40
3
50
180
51
270
0
ARC
8
0
10
194
20
-132.25
40
3
50
270
51
0
0
ARC
8
0
10
194
20
-120.25
40
3
50
0
51
90
0
ARC
8
0
10
182
20
-120.25
40
3
50
90
51
180
0
ARC
8
0
10
182
20
-132.25
40
3
50
180
51
270
0
ARC
8
0
10
194
20
-113.25
40
3
50
270
51
0
0
ARC
8
0
10
194
20
-101.25
40
3
50
0
51
90
0
ARC
8
0
10
182
20
-101.25
40
3
50
90
51
180
0
ARC
8
0
10
182
20
-113.25
40
3
50
180
51
270
0
ARC
8
0
10
194
20
-94.25
40
3
50
270
51
0
0
ARC
8
0
10
194
20
-82.25
40
3
50
0
51
90
0
ARC
8
0
10
182
20
-82.25
40
3
50
90
51
180
0
ARC
8
0
10
182
20
-94.25
40
3
50
180
51
270
0
ARC
8
0
10
213
20
-148.875
40
3
50
270
51
0
0
ARC
8
0
10
213
20
-136.875
40
3
50
0
51
90
0
ARC
8
0
10
201
20
-136.875
40
3
50
90
51
180
0
ARC
8
0
10
201
20
-148.875
40
3
50
180
51
270
0
ARC
8
0
10
213
20
-129.875
40
3
50
270
51
0
0
ARC
8
0
10
213
20
-117.875
40
3
50
0
51
90
0
ARC
8
0
10
201
20
-117.875
40
3
50
90
51
180
0
ARC
8
0
10
201
20
-129.875
40
3
50
180
51
270
0
ARC
8
0
10
213
20
-110.875
40
3
50
270
51
0
0
ARC
8
0
10
213
20
-98.875
40
3
50
0
51
90
0
ARC
8
0
10
201
20
-98.875
40
3
50
90
51
180
0
ARC
8
0
10
201
20
-110.875
40
3
50
180
51
270
0
ARC
8
0
10
213
20
-91.875
40
3
50
270
51
0
0
ARC
8
0
10
213
20
-79.875
40
3
50
0
51
90
0
ARC
8
0
10
201
20
-79.875
40
3
50
90
51
180
0
ARC
8
0
10
201
20
-91.875
40
3
50
180
51
270
0
ARC
8
0
10
232
20
-151.25
40
3
50
270
51
0
0
ARC
8
0
10
232
20
-139.25
40
3
50
0
51
90
0
ARC
8
0
10
220
20
-139.25
40
3
50
90
51
180
0
ARC
8
0
10
220
20
-151.25
40
3
50
180
51
270
0
ARC
8
0
10
232
20
-132.25
40
3
50
270
51
0
0
ARC
8
0
10
232
20
-120.25
40
3
50
0
51
90
0
ARC
8
0
10
220
20
-120.25
40
3
50
90
51
180
0
ARC
8
0
10
220
20
-132.25
40
3
50
180
51
270
0
ARC
8
0
10
232
20
-113.25
40
3
50
270
51
0
0
ARC
8
0
10
232
20
-101.25
40
3
50
0
51
90
0
ARC
8
0
10
220
20
-101.25
40
3
50
90
51
180
0
ARC
8
0
10
220
20
-113.25
40
3
50
180
51
270
0
ARC
8
0
10
232
20
-94.25
40
3
50
270
51
0
0
ARC
8
0
10
232
20
-82.25
40
3
50
0
51
90
0
ARC
8
0
10
220
20
-82.25
40
3
50
90
51
180
0
ARC
8
0
10
220
20
-94.25
40
3
50
180
51
270
0
ARC
8
0
10
251
20
-153.625
40
3
50
270
51
0
0
ARC
8
0
10
251
20
-141.625
40
3
50
0
51
90
0
ARC
8
0
10
239
20
-141.625
40
3
50
90
51
180
0
ARC
8
0
10
239
20
-153.625
40
3
50
180
51
270
0
ARC
8
0
10
251
20
-134.625
40
3
50
270
51
0
0
ARC
8
0
10
251
20
-122.625
40
3
50
0
51
90
0
ARC
8
0
10
239
20
-122.625
40
3
50
90
51
180
0
ARC
8
0
10
239
20
-134.625
40
3
50
180
51
270
0
ARC
8
0
10
251
20
-115.625
40
3
50
270
51
0
0
ARC
8
0
10
251
20
-103.625
40
3
50
0
51
90
0
ARC
8
0
10
239
20
-103.625
40
3
50
90
51
180
0
ARC
8
0
10
239
20
-115.625
40
3
50
180
51
270
0
ARC
8
0
10
251
20
-96.625
40
3
50
270
51
0
0
ARC
8
0
10
251
20
-84.625
40
3
50
0
51
90
0
ARC
8
0
10
239
20
-84.625
40
3
50
90
51
180
0
ARC
8
0
10
239
20
-96.625
40
3
50
180
51
270
0
ARC
8
0
10
196
20
-173.25
40
3
50
270
51
0
0
ARC
8
0
10
196
20
-161.25
40
3
50
0
51
90
0
ARC
8
0
10
184
20
-161.25
40
3
50
90
51
180
0
ARC
8
0
10
184
20
-173.25
40
3
50
180
51
270
0
ARC
8
0
10
215
20
-173.25
40
3
50
270
51
0
0
ARC
8
0
10
215
20
-161.25
40
3
50
0
51
90
0
ARC
8
0
10
203
20
-161.25
40
3
50
90
51
180
0
ARC
8
0
10
203
20
-173.25
40
3
50
180
51
270
0
ARC
8
0
10
234
20
-173.25
40
3
50
270
51
0
0
ARC
8
0
10
234
20
-161.25
40
3
50
0
51
90
0
ARC
8
0
10
222
20
-161.25
40
3
50
90
51
180
0
ARC
8
0
10
222
20
-173.25
40
3
50
180
51
270
0
ARC
8
0
10
253.1961524
20
-177.8211524
40
3
50
239.9999999
51
329.9999999
0
ARC
8
0
10
259.1961524
20
-167.4288476
40
3
50
329.9999999
51
59.9999999
0
ARC
8
0
10
248.8038476
20
-161.4288476
40
3
50
59.9999999
51
149.9999999
0
ARC
8
0
10
242.8038476
20
-171.8211524
40
3
50
149.9999999
51
239.9999999
0
LINE
8
0
10
252.3416636
20
-193.3011705
11
262.7339684
21
-199.3011705
0
LINE
8
0
10
266.8320446
20
-198.2030943
11
277.3320446
21
-180.0165607
0
LINE
8
0
10
276.2339684
20
-175.9184845
11
265.8416636
21
-169.9184845
0
LINE
8
0
10
261.7435874
20
-171.0165607
11
251.2435874
21
-189.2030943
0
ARC
8
0
10
264.2339684
20
-196.7030943
40
3
50
239.9999999
51
329.9999999
0
ARC
8
0
10
274.7339684
20
-178.5165607
40
3
50
329.9999999
51
59.9999999
0
ARC
8
0
10
264.3416636
20
-172.5165607
40
3
50
59.9999999
51
149.9999999
0
ARC
8
0
10
253.8416636
20
-190.7030943
40
3
50
149.9999999
51
239.9999999
0
LINE
8
0
10
257.21
20
-114.125
11
272.99
21
-114.125
0
LINE
8
0
10
273.99
20
-113.125
11
273.99
21
-82.125
0
LINE
8
0
10
256.21
20
-82.125
11
256.21
21
-113.125
0
ARC
8
0
10
272.99
20
-113.125
40
1
50
270
51
0
0
ARC
8
0
10
272.99
20
-82.125
40
1
50
0
51
90
0
ARC
8
0
10
257.21
20
-82.125
40
1
50
90
51
180
0
ARC
8
0
10
257.21
20
-113.125
40
1
50
180
51
270
0
LINE
8
0
10
260.73
20
-87.775
11
269.47
21
-87.775
0
LINE
8
0
10
269.57
20
-87.675
11
269.57
21
-80.525
0
LINE
8
0
10
269.47
20
-80.425
11
260.73
21
-80.425
0
LINE
8
0
10
260.63
20
-80.525
11
260.63
21
-87.675
0
ARC
8
0
10
269.47
20
-87.675
40
0.1
50
270
51
0
0
ARC
8
0
10
269.47
20
-80.525
40
0.1
50
0
51
90
0
ARC
8
0
10
260.73
20
-80.525
40
0.1
50
90
51
180
0
ARC
8
0
10
260.73
20
-87.675
40
0.1
50
180
51
270
0
LINE
8
0
10
258.6
20
-119.125
11
271.6
21
-119.125
0
LINE
8
0
10
272.1
20
-118.625
11
272.1
21
-83.625
0
LINE
8
0
10
271.6
20
-83.125
11
258.6
21
-83.125
0
LINE
8
0
10
258.1
20
-83.625
11
258.1
21
-118.625
0
ARC
8
0
10
271.6
20
-118.625
40
0.5
50
270
51
0
0
ARC
8
0
10
271.6
20
-83.625
40
0.5
50
0
51
90
0
ARC
8
0
10
258.6
20
-83.625
40
0.5
50
90
51
180
0
ARC
8
0
10
258.6
20
-118.625
40
0.5
50
180
51
270
0
LINE
8
0
10
258.79
20
-119.155
11
271.41
21
-119.155
0
LINE
8
0
10
271.51
20
-119.055
11
271.51
21
-116.595
0
LINE
8
0
10
271.41
20
-116.495
11
258.79
21
-116.495
0
LINE
8
0
10
258.69
20
-116.595
11
258.69
21
-119.055
0
ARC
8
0
10
271.41
20
-119.055
40
0.1
50
270
51
0
0
ARC
8
0
10
271.41
20
-116.595
40
0.1
50
0
51
90
0
ARC
8
0
10
258.79
20
-116.595
40
0.1
50
90
51
180
0
ARC
8
0
10
258.79
20
-119.055
40
0.1
50
180
51
270
0
LINE
8
0
10
259.7
20
-114.175
11
270.5
21
-114.175
0
LINE
8
0
10
270.5
20
-114.175
11
270.5
21
-89.575
0
LINE
8
0
10
270.5
20
-89.575
11
259.7
21
-89.575
0
LINE
8
0
10
259.7
20
-89.575
11
259.7
21
-114.175
0
CIRCLE
8
0
10
159.5
20
-140.5
40
2.15
0
CIRCLE
8
0
10
159.5
20
-102.5
40
2.15
0
CIRCLE
8
0
10
235.5
20
-98.9375
40
2.15
0
CIRCLE
8
0
10
178.7
20
-161.3
40
2.15
0
CIRCLE
8
0
10
197.5
20
-115.5625
40
2.15
0
CIRCLE
8
0
10
242.6076952
20
-160.1608984
40
2.15
0
ENDSEC
0
EOF