0
SECTION
2
HEADER
9
$INSUNITS
70
4
0
ENDSEC
0
SECTION
2
TABLES
0
TABLE
2
LTYPE
0
LTYPE
72
65
70
64
2
CONTINUOUS
3
______
73
0
40
0
0
ENDTAB
0
TABLE
2
LAYER
0
ENDTAB
0
ENDSEC
0
SECTION
2
ENTITIES
0
CIRCLE
8
0
10
89.5
20
-140.5
40
2.15
0
CIRCLE
8
0
10
89.5
20
-102.5
40
2.15
0
CIRCLE
8
0
10
165.5
20
-98.9375
40
2.15
0
CIRCLE
8
0
10
108.7
20
-161.3
40
2.15
0
CIRCLE
8
0
10
127.5
20
-115.5625
40
2.15
0
CIRCLE
8
0
10
172.6076952
20
-162.5358984
40
2.15
0
CIRCLE
8
0
10
360.5
20
-140.5
40
2.15
0
CIRCLE
8
0
10
360.5
20
-102.5
40
2.15
0
CIRCLE
8
0
10
284.5
20
-98.9375
40
2.15
0
CIRCLE
8
0
10
341.3
20
-161.3
40
2.15
0
CIRCLE
8
0
10
322.5
20
-115.5625
40
2.15
0
CIRCLE
8
0
10
277.3923048
20
-162.5358984
40
2.15
0
ENDSEC
0
EOF